<?xml version="1.0" encoding="UTF-8" standalone="no"?>
<!DOCTYPE svg PUBLIC "-//W3C//DTD SVG 1.1//EN"
 "http://www.w3.org/Graphics/SVG/1.1/DTD/svg11.dtd">
<!-- Generated by graphviz version 2.50.0 (0)
 -->
<!-- Pages: 1 -->
<svg width="553pt" height="467pt"
 viewBox="0.00 0.00 553.44 466.60" xmlns="http://www.w3.org/2000/svg" xmlns:xlink="http://www.w3.org/1999/xlink">
<g id="graph0" class="graph" transform="scale(1 1) rotate(0) translate(4 462.6)">
<polygon fill="white" stroke="transparent" points="-4,4 -4,-462.6 549.44,-462.6 549.44,4 -4,4"/>
<!-- 140049008078416 -->
<g id="node1" class="node">
<title>140049008078416</title>
<ellipse fill="none" stroke="black" cx="280.27" cy="-26.87" rx="265.33" ry="26.74"/>
<text text-anchor="middle" x="280.27" y="-30.67" font-family="Times,serif" font-size="14.00">Reshape</text>
<text text-anchor="middle" x="280.27" y="-15.67" font-family="Times,serif" font-size="14.00">[[ 2. &#160;&#160;&#160;&#160;&#160;&#160;&#160;&#160;&#160;4.71828183 &#160;8.3890561 &#160;22.08553692]]</text>
</g>
<!-- 140049008078800 -->
<g id="node2" class="node">
<title>140049008078800</title>
<ellipse fill="none" stroke="black" cx="280.27" cy="-127.22" rx="156.04" ry="37.45"/>
<text text-anchor="middle" x="280.27" y="-138.52" font-family="Times,serif" font-size="14.00">EWiseAdd</text>
<text text-anchor="middle" x="280.27" y="-123.52" font-family="Times,serif" font-size="14.00">[[ 2. &#160;&#160;&#160;&#160;&#160;&#160;&#160;&#160;&#160;4.71828183]</text>
<text text-anchor="middle" x="280.27" y="-108.52" font-family="Times,serif" font-size="14.00"> [ 8.3890561 &#160;22.08553692]]</text>
</g>
<!-- 140049008078800&#45;&gt;140049008078416 -->
<g id="edge1" class="edge">
<title>140049008078800&#45;&gt;140049008078416</title>
<path fill="none" stroke="black" d="M280.27,-89.6C280.27,-81.23 280.27,-72.33 280.27,-63.98"/>
<polygon fill="black" stroke="black" points="283.77,-63.78 280.27,-53.78 276.77,-63.78 283.77,-63.78"/>
</g>
<!-- 140049008123664 -->
<g id="node3" class="node">
<title>140049008123664</title>
<ellipse fill="none" stroke="black" cx="156.27" cy="-238.17" rx="156.04" ry="37.45"/>
<text text-anchor="middle" x="156.27" y="-249.47" font-family="Times,serif" font-size="14.00">Exp</text>
<text text-anchor="middle" x="156.27" y="-234.47" font-family="Times,serif" font-size="14.00">[[ 1. &#160;&#160;&#160;&#160;&#160;&#160;&#160;&#160;&#160;2.71828183]</text>
<text text-anchor="middle" x="156.27" y="-219.47" font-family="Times,serif" font-size="14.00"> [ 7.3890561 &#160;20.08553692]]</text>
</g>
<!-- 140049008123664&#45;&gt;140049008078800 -->
<g id="edge2" class="edge">
<title>140049008123664&#45;&gt;140049008078800</title>
<path fill="none" stroke="black" d="M196.53,-201.8C207.9,-191.81 220.39,-180.83 232.17,-170.48"/>
<polygon fill="black" stroke="black" points="234.59,-173.02 239.79,-163.79 229.97,-167.76 234.59,-173.02"/>
</g>
<!-- 140049008120448 -->
<g id="node4" class="node">
<title>140049008120448</title>
<ellipse fill="none" stroke="black" cx="156.27" cy="-349.12" rx="54.39" ry="37.45"/>
<text text-anchor="middle" x="156.27" y="-360.42" font-family="Times,serif" font-size="14.00">Reshape</text>
<text text-anchor="middle" x="156.27" y="-345.42" font-family="Times,serif" font-size="14.00">[[0. 1.]</text>
<text text-anchor="middle" x="156.27" y="-330.42" font-family="Times,serif" font-size="14.00"> [2. 3.]]</text>
</g>
<!-- 140049008120448&#45;&gt;140049008123664 -->
<g id="edge3" class="edge">
<title>140049008120448&#45;&gt;140049008123664</title>
<path fill="none" stroke="black" d="M156.27,-311.54C156.27,-303.37 156.27,-294.59 156.27,-286.06"/>
<polygon fill="black" stroke="black" points="159.77,-285.84 156.27,-275.84 152.77,-285.84 159.77,-285.84"/>
</g>
<!-- 140049008120256 -->
<g id="node5" class="node">
<title>140049008120256</title>
<ellipse fill="none" stroke="black" cx="156.27" cy="-440.6" rx="61.99" ry="18"/>
<text text-anchor="middle" x="156.27" y="-436.9" font-family="Times,serif" font-size="14.00">[0. 1. 2. 3.]</text>
</g>
<!-- 140049008120256&#45;&gt;140049008120448 -->
<g id="edge4" class="edge">
<title>140049008120256&#45;&gt;140049008120448</title>
<path fill="none" stroke="black" d="M156.27,-422.35C156.27,-415.04 156.27,-406.14 156.27,-397.12"/>
<polygon fill="black" stroke="black" points="159.77,-396.95 156.27,-386.95 152.77,-396.95 159.77,-396.95"/>
</g>
<!-- 140049008078608 -->
<g id="node6" class="node">
<title>140049008078608</title>
<ellipse fill="none" stroke="black" cx="405.27" cy="-238.17" rx="74.49" ry="37.45"/>
<text text-anchor="middle" x="405.27" y="-249.47" font-family="Times,serif" font-size="14.00">BroadcastTo</text>
<text text-anchor="middle" x="405.27" y="-234.47" font-family="Times,serif" font-size="14.00">[[1. 2.]</text>
<text text-anchor="middle" x="405.27" y="-219.47" font-family="Times,serif" font-size="14.00"> [1. 2.]]</text>
</g>
<!-- 140049008078608&#45;&gt;140049008078800 -->
<g id="edge5" class="edge">
<title>140049008078608&#45;&gt;140049008078800</title>
<path fill="none" stroke="black" d="M368.78,-205.36C356.25,-194.44 342.02,-182.04 328.7,-170.43"/>
<polygon fill="black" stroke="black" points="330.81,-167.63 320.97,-163.69 326.21,-172.9 330.81,-167.63"/>
</g>
<!-- 140049008123808 -->
<g id="node7" class="node">
<title>140049008123808</title>
<ellipse fill="none" stroke="black" cx="405.27" cy="-349.12" rx="54.39" ry="26.74"/>
<text text-anchor="middle" x="405.27" y="-352.92" font-family="Times,serif" font-size="14.00">Reshape</text>
<text text-anchor="middle" x="405.27" y="-337.92" font-family="Times,serif" font-size="14.00">[[1. 2.]]</text>
</g>
<!-- 140049008123808&#45;&gt;140049008078608 -->
<g id="edge6" class="edge">
<title>140049008123808&#45;&gt;140049008078608</title>
<path fill="none" stroke="black" d="M405.27,-322.03C405.27,-311.21 405.27,-298.31 405.27,-285.96"/>
<polygon fill="black" stroke="black" points="408.77,-285.76 405.27,-275.76 401.77,-285.76 408.77,-285.76"/>
</g>
<!-- 140049008120160 -->
<g id="node8" class="node">
<title>140049008120160</title>
<ellipse fill="none" stroke="black" cx="405.27" cy="-440.6" rx="38.19" ry="18"/>
<text text-anchor="middle" x="405.27" y="-436.9" font-family="Times,serif" font-size="14.00">[1. 2.]</text>
</g>
<!-- 140049008120160&#45;&gt;140049008123808 -->
<g id="edge7" class="edge">
<title>140049008120160&#45;&gt;140049008123808</title>
<path fill="none" stroke="black" d="M405.27,-422.35C405.27,-412.11 405.27,-398.74 405.27,-386.29"/>
<polygon fill="black" stroke="black" points="408.77,-386.14 405.27,-376.14 401.77,-386.14 408.77,-386.14"/>
</g>
</g>
</svg>
